<svg width="21" height="12" viewBox="0 0 21 12" fill="none" xmlns="http://www.w3.org/2000/svg">
<path d="M15.1844 1.61857L16.6069 2.94857L11.7861 7.4558L8.53603 4.41711C8.15076 4.05691 7.5284 4.05691 7.14314 4.41711L1.21595 9.96803C0.830685 10.3282 0.830685 10.9101 1.21595 11.2703C1.60122 11.6305 2.22357 11.6305 2.60884 11.2703L7.83464 6.37517L11.0847 9.41386C11.47 9.77407 12.0923 9.77407 12.4776 9.41386L17.9998 4.2601L19.4223 5.5901C19.7285 5.87642 20.262 5.67323 20.262 5.26684V1.2953C20.2719 1.03669 20.0545 0.833496 19.7779 0.833496H15.54C15.0954 0.833496 14.8781 1.33225 15.1844 1.61857Z" fill="#1B59F8"/>
</svg>
