<?xml version="1.0" encoding="iso-8859-1"?>
<!-- Uploaded to: SVG Repo, www.svgrepo.com, Generator: SVG Repo Mixer Tools -->
<svg fill="#000000" height="800px" width="800px" version="1.1" id="Layer_1" xmlns="http://www.w3.org/2000/svg" xmlns:xlink="http://www.w3.org/1999/xlink" 
	 viewBox="0 0 512.033 512.033" xml:space="preserve">
<g transform="translate(-1)">
	<g>
		<g>
			<path d="M156.185,358.417h-52.838l0.06,42.675c0.008,4.71,3.831,8.525,8.533,8.525h110.933c4.719,0,8.533-3.823,8.533-8.533
				v-20.702c0-1.638,0.094-3.268,0.119-4.898h-51.319C169.105,375.484,159.718,368.333,156.185,358.417z"/>
			<path d="M171.677,349.884c0,4.702,3.823,8.533,8.533,8.533h51.994c0.375-5.709,0.887-11.401,1.544-17.067H180.21
				C175.5,341.35,171.677,345.182,171.677,349.884z"/>
			<path d="M367.943,452.284c0,4.702,3.823,8.533,8.533,8.533h51.994c0.375-5.709,0.887-11.401,1.545-17.067h-53.538
				C371.766,443.75,367.943,447.582,367.943,452.284z"/>
			<path d="M352.452,460.817h-52.838l0.06,42.675c0.009,4.71,3.831,8.525,8.533,8.525H419.14c4.719,0,8.533-3.823,8.533-8.533
				v-20.702c0-1.638,0.094-3.268,0.119-4.898h-51.319C365.371,477.884,355.985,470.733,352.452,460.817z"/>
			<path d="M509.315,202.126c-4.48-8.132-12.459-13.329-21.888-14.268c-6.374-0.606-19.081,1.109-32.614,19.814l-7.765,10.53
				l13.585-42.658c3.652-13.167-1.425-27.23-12.356-34.185c-4.949-3.149-10.667-4.813-16.538-4.813
				c-16.137,0-26.394,14.959-30.362,27.947l-16.418,40.141l0.051-71.134c0-15.838-11.776-29.423-26.82-30.933
				c-8.465-0.862-16.845,1.92-23.083,7.569c-6.246,5.649-9.83,13.73-9.83,22.144l-0.051,73.566l-15.684-47.241
				c-1.425-5.495-3.029-9.941-4.907-13.722l8.755-16.427c4.617-9.233,4.497-19.968-0.341-28.732
				c-4.48-8.132-12.467-13.329-21.888-14.268c-6.366-0.589-19.081,1.109-32.614,19.814l-7.765,10.53l13.585-42.658
				c3.661-13.175-1.425-27.238-12.356-34.185c-4.949-3.149-10.667-4.813-16.538-4.813c-16.137,0-26.394,14.959-30.362,27.947
				l-16.418,40.141l0.051-71.134c0-15.846-11.785-29.431-26.82-30.933c-8.457-0.853-16.845,1.92-23.083,7.569
				c-6.246,5.649-9.83,13.73-9.83,22.144l-0.051,73.566l-15.684-47.241c-3.678-14.225-10.487-30.558-30.566-30.558
				c-13.295,0-24.704,7.945-29.056,20.258c-1.749,4.983-1.963,10.743-0.538,16.981l23.927,89.276l-0.401-0.529
				c-12.416-16.742-34.97-26.155-54.835-22.921c-5.82,0.956-11.17,4.079-15.061,8.806c-7.782,9.446-7.646,23.014,0.341,32.256
				c11.213,13.013,83.388,115.157,89.557,130.739c4.429,11.187,6.665,22.963,6.665,35.004l0.009,5.828h52.872
				c3.533-9.907,12.911-17.067,24.021-17.067h55.97c0.512-3.046,1.169-6.067,1.775-9.105c17.92,26.078,50.125,75.537,54.955,87.74
				c4.429,11.187,6.664,22.972,6.664,35.012l0.009,5.82h52.872c3.533-9.907,12.911-17.067,24.021-17.067h55.97
				c0.964-5.717,2.065-11.409,3.328-17.067h-42.231c-4.719,0-8.533-3.814-8.533-8.533c0-4.71,3.814-8.533,8.533-8.533h46.498
				c2.987-10.624,6.451-21.137,10.505-31.479l28.442-72.687l30.669-57.523C514.273,221.625,514.153,210.89,509.315,202.126z
				 M114.699,200.138l-2.577-10.317c-1.152-4.574,1.63-9.207,6.195-10.351c4.574-1.118,9.207,1.63,10.351,6.212L131.254,196
				c1.143,4.565-1.638,9.199-6.204,10.351c-0.7,0.171-1.391,0.247-2.082,0.247C119.154,206.598,115.672,204.021,114.699,200.138z
				 M139.523,264.3c-0.691,0.171-1.391,0.247-2.074,0.247c-3.823,0-7.296-2.586-8.26-6.46l-4.147-16.555
				c-1.152-4.574,1.638-9.207,6.212-10.351c4.557-1.152,9.199,1.638,10.342,6.204l4.139,16.563
				C146.887,258.515,144.105,263.148,139.523,264.3z M180.125,256.014c0,4.719-3.814,8.533-8.533,8.533
				c-4.71,0-8.533-3.814-8.533-8.533v-8.533c0-4.71,3.823-8.533,8.533-8.533c4.719,0,8.533,3.823,8.533,8.533V256.014z
				 M180.125,204.815c0,4.719-3.814,8.533-8.533,8.533c-4.71,0-8.533-3.814-8.533-8.533v-17.067c0-4.71,3.823-8.533,8.533-8.533
				c4.719,0,8.533,3.823,8.533,8.533V204.815z M211.937,196l2.586-10.317c1.126-4.582,5.769-7.347,10.342-6.212
				c4.574,1.143,7.356,5.777,6.204,10.351l-2.586,10.317c-0.964,3.883-4.446,6.46-8.26,6.46c-0.7,0-1.391-0.077-2.091-0.247
				C213.567,205.199,210.785,200.565,211.937,196z M197.456,253.949l4.139-16.563c1.152-4.574,5.837-7.347,10.342-6.204
				c4.574,1.143,7.356,5.777,6.204,10.351l-4.139,16.555c-0.964,3.874-4.446,6.46-8.269,6.46c-0.691,0-1.382-0.077-2.074-0.247
				C199.086,263.148,196.304,258.515,197.456,253.949z M197.277,307.215c-4.719,0-8.533-3.814-8.533-8.533
				c0-4.71,3.814-8.533,8.533-8.533h28.945c-0.23,0.828-0.495,1.596-0.7,2.423c-0.674,2.611-0.068,5.393,1.63,7.492
				c1.109,1.365,2.935,3.866,5.265,7.151H197.277z M310.966,302.538l-2.577-10.317c-1.152-4.574,1.63-9.207,6.195-10.351
				c4.582-1.101,9.207,1.63,10.351,6.212l2.586,10.317c1.143,4.565-1.638,9.199-6.204,10.351c-0.7,0.171-1.391,0.247-2.082,0.247
				C315.421,308.998,311.939,306.421,310.966,302.538z M335.79,366.7c-0.691,0.171-1.391,0.247-2.074,0.247
				c-3.823,0-7.296-2.586-8.26-6.46l-4.147-16.555c-1.152-4.574,1.638-9.207,6.212-10.351c4.565-1.152,9.199,1.638,10.342,6.204
				l4.139,16.563C343.154,360.915,340.372,365.548,335.79,366.7z M376.391,358.415c0,4.719-3.814,8.533-8.533,8.533
				c-4.71,0-8.533-3.814-8.533-8.533v-8.533c0-4.71,3.823-8.533,8.533-8.533c4.719,0,8.533,3.823,8.533,8.533V358.415z
				 M376.391,307.215c0,4.719-3.814,8.533-8.533,8.533c-4.71,0-8.533-3.814-8.533-8.533v-17.067c0-4.71,3.823-8.533,8.533-8.533
				c4.719,0,8.533,3.823,8.533,8.533V307.215z M414.407,343.933l-4.139,16.555c-0.964,3.874-4.446,6.46-8.269,6.46
				c-0.691,0-1.382-0.077-2.074-0.247c-4.574-1.152-7.356-5.786-6.204-10.351l4.139-16.563c1.143-4.565,5.828-7.33,10.342-6.204
				C412.777,334.726,415.559,339.36,414.407,343.933z M427.335,292.221l-2.586,10.317c-0.964,3.883-4.446,6.46-8.26,6.46
				c-0.7,0-1.391-0.077-2.091-0.247c-4.565-1.152-7.347-5.786-6.195-10.351l2.586-10.317c1.135-4.582,5.777-7.339,10.342-6.212
				C425.705,283.014,428.487,287.648,427.335,292.221z"/>
		</g>
	</g>
</g>
</svg>