<?xml version="1.0" encoding="UTF-8" standalone="no"?>
<!-- Created with Inkscape (http://www.inkscape.org/) -->

<svg
   xmlns:dc="http://purl.org/dc/elements/1.1/"
   xmlns:cc="http://creativecommons.org/ns#"
   xmlns:rdf="http://www.w3.org/1999/02/22-rdf-syntax-ns#"
   xmlns:svg="http://www.w3.org/2000/svg"
   xmlns="http://www.w3.org/2000/svg"
   xmlns:sodipodi="http://sodipodi.sourceforge.net/DTD/sodipodi-0.dtd"
   xmlns:inkscape="http://www.inkscape.org/namespaces/inkscape"
   width="814.96063"
   height="1240.1575"
   id="svg4647"
   version="1.1"
   inkscape:version="0.48.4 r"
   sodipodi:docname="pince coupante.svg">
  <defs
     id="defs3" />
  <sodipodi:namedview
     inkscape:document-units="mm"
     id="base"
     pagecolor="#ffffff"
     bordercolor="#666666"
     borderopacity="1.0"
     inkscape:pageopacity="0.0"
     inkscape:pageshadow="2"
     inkscape:zoom="0.34137487"
     inkscape:cx="376.10332"
     inkscape:cy="318.52327"
     inkscape:current-layer="layer1"
     showgrid="false"
     units="mm"
     width="2mm"
     inkscape:window-width="1600"
     inkscape:window-height="877"
     inkscape:window-x="-8"
     inkscape:window-y="-8"
     inkscape:window-maximized="1" />
  <metadata
     id="metadata4">
    <rdf:RDF>
      <cc:Work
         rdf:about="">
        <dc:format>image/svg+xml</dc:format>
        <dc:type
           rdf:resource="http://purl.org/dc/dcmitype/StillImage" />
        <dc:title></dc:title>
      </cc:Work>
    </rdf:RDF>
  </metadata>
  <g
     inkscape:label="Layer 1"
     inkscape:groupmode="layer"
     id="layer1"
     transform="translate(0,187.79522)">
    <path
       style="fill:#000000;stroke:#000000;stroke-width:1px;stroke-linecap:butt;stroke-linejoin:miter;stroke-opacity:1"
       d="M 319.26028,82.36733 C 315.26498,69.65254 296.23389,67.89049 291.55601,67.60897 271.81499,66.0755 274.48725,56.751206 276.27981,43.529516 c -0.59396,-3.20352 -2.45141,-5.14353 -4.40162,-6.9908 -3.12178,-3.61464 -0.0892,-6.35008 1.29459,-9.32108 -0.12053,-2.91595 -1.40415,-4.19034 -5.17837,-9.32107 -1.36904,-2.15766 -0.86656,-4.31531 0.51783,-6.47297 5.76462,-10.57823 -3.66324,-10.30468 -6.47296,-14.75837 -5.23699,-5.369101 -1.43791,-9.608693 1.29459,-13.981607 4.51751,-6.683394 10.28014,-12.53671 12.94594,-20.45458 -5.04346,-8.968697 -7.65432,-10.002312 -2.84811,-20.972417 3.16864,-7.422337 5.97264,-14.844674 7.76756,-22.267011 2.10162,-5.792984 3.21917,-11.011923 17.34756,-23.820521 -0.1579,-0.62458 -0.58127,-1.20491 -2.78338,-1.48879 1.59035,-1.12 3.61058,-1.27278 5.8904,-0.84148 -0.72257,-1.70605 -2.03983,-3.04042 -4.1427,-3.88378 1.20048,-0.56485 2.60273,-0.80688 4.66054,0 3.33006,-3.44645 6.117,-7.32741 11.9103,-8.80324 -0.6851,-3.62486 0.5896,-7.24972 1.5535,-10.87459 0.058,2.85676 -1.3762,8.0766 0.5178,8.02649 3.1695,-2.54276 6.1135,-5.62689 10.0978,-6.21406 9.9887,-2.4695 19.5246,-8.37965 30.2935,-4.91945 -0.1254,-2.27529 1.1907,-3.74969 2.5892,-5.17837 -0.407,1.90891 -1.1489,4.00047 0.2589,4.91945 2.5411,0.5858 8.2225,2.48347 10.0979,1.03568 15.3646,-12.95621 28.7911,-7.09556 38.8378,-2.58919 -9.4493,-3.25738 -24.5159,-4.02514 -24.5973,4.1427 7.812,0.011 13.3928,-3.9943 23.5616,0.25892 -1.6571,0.27618 -3.7746,0.14951 -4.1427,1.55351 12.7864,2.99887 25.1518,6.69948 31.3292,20.7135 -1.0284,-0.23184 -1.4657,-0.0204 -1.8125,0.25892 14.0564,12.40018 18.5496,25.50875 23.5616,38.578887 -4.0376,4.097328 0.382,8.9635 3.6249,13.722693 3.2122,3.330233 -0.2981,13.725315 -2.5892,19.159986 -1.98,4.056394 -3.1925,8.112787 -4.1427,12.169181 l -3.107,16.052961 c 0.8061,3.930523 2.3496,4.823972 4.9195,5.955128 -3.1772,0.66619 -6.3277,-0.0477 -9.839,-2.330266 3.7479,6.084126 4.7871,12.732586 4.4017,19.677826 -2.5159,-5.86336 -2.692,-4.94133 -3.6249,-6.21405 1.5914,5.51391 2.0328,10.79782 1.0357,15.79404 -0.5367,-2.37716 -1.4549,-4.61123 -3.366,-6.47297 1.1057,3.59541 0.781,6.67068 0,9.58 -0.5484,-2.83281 -1.5236,-5.45223 -3.107,-7.76757 0.2574,4.80405 1.3913,9.53389 -0.2589,14.49945 -0.5692,-2.90872 -0.6021,-6.08559 -4.1427,-7.50864 1.5401,0.27179 -1.3259,10.47308 -4.6606,11.13351 -0.5178,3.23648 1.0357,6.9908 1.0357,6.9908 -2.3617,-1.2789 -3.2243,-3.30729 -3.8838,-5.43729 -1.457,5.38416 -3.4353,10.16569 -6.4729,13.72269 0.3671,4.59452 1.0635,9.015694 4.6605,11.910264 3.3701,2.21659 5.1727,3.91066 4.9195,4.91946 -0.7853,4.33069 24.9856,4.5095 40.3913,11.1335 l 25.63292,0.25892 c 4.3161,-1.64942 8.5436,-2.14802 12.6871,-1.55351 18.2169,-10.90119 33.5786,-24.789424 62.3994,-24.597284 4.3705,-1.93227 6.9501,-4.37625 13.4637,-5.69621 19.0975,-12.37743 38.2463,-24.68316 59.0335,-34.69511 7.8793,-13.41547 17.4086,-23.695926 28.74,-30.552412 2.0984,-1.138387 4.3844,-2.589328 7.5086,-5.437294 2.6755,-3.279637 3.5745,-8.335756 8.0265,-9.838911 -0.01,-14.533171 2.2801,-28.439825 9.8389,-40.90916 4.6915,-5.798007 4.6851,-9.247054 6.2141,-13.463774 1.7292,-5.969258 3.0718,-11.970734 8.8032,-17.606475 6.5944,-4.7359 12.9297,-1.51755 14.2406,5.696213 -0.016,6.292351 -1.5936,12.321771 -3.6249,17.606474 -2.2131,5.560596 4.5751,8.399883 10.0978,5.437293 -1.8862,-2.734134 -3.3099,-10.286054 11.9103,-17.606474 5.8304,-2.90393 12.3987,-2.468006 18.901,-2.330268 12.1023,1.656523 10.9502,8.787019 8.0265,12.945936 4.6037,5.241356 12.9111,20.70675 8.8033,31.070248 3.0467,8.227159 0.1616,12.083798 -3.6249,15.276206 -0.3123,7.984138 -2.028,14.096971 -6.473,16.570798 -5.2307,7.621251 -8.839,16.95497 -19.9367,18.38323 -2.7228,1.09943 -5.8233,4.08768 -9.58,10.35675 1.9734,11.4317 -2.8974,18.65163 -9.8389,24.59728 -2.7584,3.06225 -5.0204,2.77421 -9.0622,14.49945 0.8727,2.67025 -6.2107,6.42543 -12.687,10.09783 -1.646,2.151454 -3.2492,4.345704 -7.2497,4.142704 -5.1972,0.99808 -7.9652,6.85441 -11.9103,10.35675 -3.3732,4.36803 -8.8556,7.32991 -14.2405,10.35675 -18.2125,10.91265 -32.694,29.79116 -53.5962,40.1324 -5.9644,9.22962 -11.4364,9.59504 -17.0886,13.20486 -23.5867,22.77801 -51.3556,39.63133 -78.9702,56.7032 -1.7288,4.56074 -5.1866,8.38053 -9.3211,11.91026 0.9733,10.08342 -3.6174,17.78229 -7.2497,25.89187 0.5898,12.00685 -3.3631,23.36474 -7.5087,34.69511 -3.8732,10.09783 -8.55972,20.19566 -9.83892,30.29349 -0.1221,3.26771 -0.429,6.47382 -2.5892,9.06216 -0.1165,14.99776 -7.018,28.38006 -14.2405,41.68592 -4.1362,16.562 -9.009,32.1664 -16.5708,44.2751 1.963,22.00809 2.4771,44.01619 -2.0713,66.02428 -5.8632,20.65018 0.3807,32.44924 -5.4373,64.9886 9.901,26.44984 13.0199,52.51534 17.6051,78.30071 -0.01,0.64973 -0.05,1.27529 -0.7754,1.44626 -0.7733,51.95751 -16.2597,99.01064 -26.4097,147.84259 1.128,12.85963 2.9387,25.71926 0.7767,38.57889 0.4739,9.02973 2.8016,18.21393 -0.5178,26.92755 3.8068,3.70805 5.2336,8.20945 5.9551,12.94594 9.9284,-14.01468 19.6996,-28.32973 37.0254,-28.22214 5.8465,-0.0626 10.23832,7.31771 15.27622,11.39242 l 10.3567,-4.91945 c 3.8481,-0.24282 7.2919,4.89574 6.2141,7.24972 l -2.8481,4.1427 5.1784,-2.84811 c 2.8765,-0.8032 8.0995,5.13825 6.6672,6.40824 l -6.6672,6.27878 c 2.0194,6.56949 3.2279,12.49025 4.4016,18.38323 1.1989,6.33204 12.4281,17.26125 18.6421,25.89188 6.1672,-5.20036 12.5056,-9.37426 19.16,-11.65135 3.7131,-14.26181 6.6208,-27.62354 19.2488,-36.09695 14.7975,-8.30834 35.2904,-7.23885 45.9987,10.98184 13.1733,17.90392 -1.573,81.24107 -5.6961,94.76427 -8.243,24.6397 -8.8621,35.00648 -27.9633,41.68588 -10.4081,3.1224 -19.5895,-5.643 -25.8919,-18.38318 -18.8116,5.7153 -32.4997,14.50478 -44.0162,24.59718 -10.1445,8.3883 -18.3796,9.5205 -26.1023,8.7059 -11.04712,3.2312 -13.29952,9.394 -34.74362,9.1595 -55.8016,20.0357 -128.218,34.0079 -146.548,-13.4637 -6.8291,-12.6007 -7.5871,-25.20148 -9.8389,-37.80218 -33.65942,8.6306 -86.13485,28.18668 -100.97827,25.89188 l -2.07135,-1.2946 c -33.2514,0.8377 -77.0206,11.2917 -95.02318,-1.8124 -10.72546,-7.87968 -19.51596,-23.46688 -14.74535,-57.01198 0.65402,-9.3235 0.17184,-17.79492 2.57617,-28.4312 -4.51376,-0.68736 -3.51561,-5.38337 0,-11.91026 0.11001,-15.36709 2.7353,-30.14235 6.99081,-44.53403 0.97286,-8.23833 0.0469,-16.79314 3.62486,-24.59728 8.75003,-27.59974 13.66595,-55.43912 29.51673,-82.59507 -1.80789,-10.50838 -0.88391,-20.75658 7.50865,-30.29349 l 2.07135,-10.61567 c 2.69666,-7.61204 8.51837,-8.19274 12.94593,-11.91026 2.69579,-5.86883 3.34168,-11.73765 3.62487,-17.60648 -1.08931,-3.71946 4.30623,-16.87142 8.2854,-27.96322 7.98912,-18.79029 13.92898,-38.60521 26.40971,-55.14969 l -29.25782,-11.65134 c -4.5279,-1.56252 -1.9904,-5.69427 -1.55351,-9.06216 9.42434,-24.95984 15.67446,-50.71323 21.23133,-76.63994 4.292,-34.44396 17.14258,-67.19459 23.04377,-99.94263 11.59109,-52.24248 21.59191,-75.48903 31.847,-158.45827 -2.17674,-5.05389 -7.1456,-4.52354 -11.65134,-4.91945 -32.45115,-4.19609 -64.90229,-15.13789 -97.35344,-30.55241 -4.83708,-3.57442 -13.06459,-6.18015 -21.23134,-8.80324 -5.77985,-3.00869 -11.18217,-4.31854 -17.86539,-11.39243 -7.53636,0.43911 -16.24048,-2.95874 -27.18647,-13.72269 l -17.34755,-2.8481 c -11.59314,-3.66035 -7.52414,-13.45526 -3.88378,-15.53513 -4.81816,-3.32305 -7.42788,-8.69231 -2.07135,-15.2762 -2.0872,-4.42422 -6.17599,-13.17152 1.55351,-16.31188 -1.23282,-2.49077 -2.64361,-4.68492 -1.03568,-11.91027 L 26.94107,71.49275 c -6.01272,-6.20612 0.0832,-10.55561 7.96175,-8.86797 4.17707,0.53662 6.78701,0.0938 9.64472,-0.19419 3.61329,-0.25024 6.22557,0.25027 7.76756,1.55351 4.56639,2.50286 9.24293,3.79407 13.98162,4.40162 6.70026,0.44507 7.69869,3.97862 10.61566,6.47297 8.56858,0.31102 15.57297,2.47952 18.64215,9.32108 1.13011,2.80396 3.11639,5.74311 7.50865,9.06215 3.8441,-0.24049 4.24824,1.51058 4.91945,3.10703 -0.39891,2.39802 4.90035,2.18439 8.2854,2.8481 2.81058,-0.87433 4.69675,0.10019 5.95513,2.33027 3.16959,6.05724 9.57999,-0.3668 27.96322,8.2854 8.98218,-0.14098 17.73047,-1.4514 27.18647,0.77676 8.33305,-2.51904 16.31021,1.41227 26.66863,1.29459 8.94062,0.11335 11.68848,3.02343 15.53512,5.43729 8.70706,-0.90001 17.01211,0.21003 24.8562,3.62487 2.99369,-3.31441 6.09585,-6.60472 10.61567,-9.58 3.31487,-6.86187 17.93339,-12.68725 20.19566,-13.20485 9.67191,-2.74346 17.5888,-7.3673 24.8562,-12.68702 2.28624,-2.06078 12.76825,-2.07261 19.15995,-3.10703 z"
       id="path5217"
       inkscape:connector-curvature="0"
       sodipodi:nodetypes="cccccccccccccccccccccccccccccccccccccccccccccccccccccccccccccccccccccccccccccccccccccccccccccccccccccccccccccccccccccccccccccccccccccccccccccccccccccccccccccccccccccccccc" />
  </g>
</svg>
