<?xml version="1.0" encoding="iso-8859-1"?>
<!-- Uploaded to: SVG Repo, www.svgrepo.com, Generator: SVG Repo Mixer Tools -->
<svg fill="#000000" version="1.1" id="Capa_1" xmlns="http://www.w3.org/2000/svg" xmlns:xlink="http://www.w3.org/1999/xlink" 
	 viewBox="0 0 512 512" xml:space="preserve">
<g>
	<g>
		<rect x="200.098" y="496.327" width="111.804" height="15.673"/>
	</g>
</g>
<g>
	<g>
		<polygon points="208.457,455.576 208.457,487.967 224.131,487.967 224.131,471.249 287.869,471.249 287.869,487.967 
			303.543,487.967 303.543,455.576 		"/>
	</g>
</g>
<g>
	<g>
		<rect x="248.163" y="248.686" width="15.673" height="15.673"/>
	</g>
</g>
<g>
	<g>
		<rect x="200.098" width="111.804" height="15.673"/>
	</g>
</g>
<g>
	<g>
		<polygon points="287.869,24.033 287.869,40.751 224.131,40.751 224.131,24.033 208.457,24.033 208.457,56.424 303.543,56.424 
			303.543,24.033 		"/>
	</g>
</g>
<g>
	<g>
		<path d="M320.261,0v15.673h8.359v73.143H184.424V15.673h7.314V0H96.653v512h95.086v-15.673h-7.314v-73.143H328.62v73.143h-8.359
			V512h95.086V0H320.261z M287.158,104.49c-3.682,13.695-16.183,23.751-31.005,23.751c-14.821,0-27.323-10.056-31.005-23.751
			H287.158z M225.147,407.51c3.682-13.695,16.183-23.751,31.005-23.751c14.821,0,27.323,10.056,31.005,23.751H225.147z
			 M399.673,496.327h-55.38V407.51h-41.116c-3.989-22.225-23.551-39.424-47.026-39.424c-23.475,0-43.035,17.2-47.026,39.424h-40.376
			v88.816h-56.424V264.359h72.578c4.157,35.637,34.513,63.392,71.248,63.392s67.093-27.755,71.248-63.392h72.272V496.327z
			 M311.605,264.359c-4.049,26.97-27.371,47.718-55.453,47.718c-28.082,0-51.403-20.749-55.452-47.718h39.103v-15.673h-39.237
			c3.598-27.476,27.143-48.763,55.585-48.763c28.442,0,51.988,21.288,55.585,48.763h-39.542v15.673H311.605z M399.673,248.686
			h-72.14c-3.676-36.141-34.286-64.437-71.381-64.437c-37.095,0-67.705,28.296-71.381,64.437h-72.445V15.673h56.424v88.816h40.376
			c3.989,22.225,23.551,39.424,47.026,39.424c23.475,0,43.035-17.2,47.026-39.424h41.116V15.673h55.38V248.686z"/>
	</g>
</g>
</svg>