<?xml version="1.0" encoding="UTF-8" standalone="no"?>
<!-- Created with Inkscape (http://www.inkscape.org/) -->

<svg
   xmlns:dc="http://purl.org/dc/elements/1.1/"
   xmlns:cc="http://creativecommons.org/ns#"
   xmlns:rdf="http://www.w3.org/1999/02/22-rdf-syntax-ns#"
   xmlns:svg="http://www.w3.org/2000/svg"
   xmlns="http://www.w3.org/2000/svg"
   xmlns:sodipodi="http://sodipodi.sourceforge.net/DTD/sodipodi-0.dtd"
   xmlns:inkscape="http://www.inkscape.org/namespaces/inkscape"
   id="svg3406"
   version="1.1"
   inkscape:version="0.91 r13725"
   width="481.25"
   height="493.75"
   viewBox="0 0 481.25 493.75"
   sodipodi:docname="silhouette-handball-09.svg">
  <title
     id="title3432">Silhouette Handball 09</title>
  <metadata
     id="metadata3412">
    <rdf:RDF>
      <cc:Work
         rdf:about="">
        <dc:format>image/svg+xml</dc:format>
        <dc:type
           rdf:resource="http://purl.org/dc/dcmitype/StillImage" />
        <dc:title>Silhouette Handball 09</dc:title>
        <cc:license
           rdf:resource="http://creativecommons.org/publicdomain/zero/1.0/" />
        <dc:subject>
          <rdf:Bag>
            <rdf:li>silhouette</rdf:li>
            <rdf:li>sport</rdf:li>
            <rdf:li>handball</rdf:li>
            <rdf:li>player</rdf:li>
            <rdf:li>sportsman</rdf:li>
            <rdf:li>man</rdf:li>
            <rdf:li>handballeur</rdf:li>
            <rdf:li>sportif</rdf:li>
            <rdf:li>homme</rdf:li>
          </rdf:Bag>
        </dc:subject>
        <dc:date>2017-02-09</dc:date>
        <dc:creator>
          <cc:Agent>
            <dc:title>JLouis</dc:title>
          </cc:Agent>
        </dc:creator>
        <dc:rights>
          <cc:Agent>
            <dc:title>Domaine public</dc:title>
          </cc:Agent>
        </dc:rights>
        <dc:publisher>
          <cc:Agent>
            <dc:title>Inkscape</dc:title>
          </cc:Agent>
        </dc:publisher>
        <dc:description>Silhouette of a handball player - handballeur en silhouette.</dc:description>
      </cc:Work>
      <cc:License
         rdf:about="http://creativecommons.org/publicdomain/zero/1.0/">
        <cc:permits
           rdf:resource="http://creativecommons.org/ns#Reproduction" />
        <cc:permits
           rdf:resource="http://creativecommons.org/ns#Distribution" />
        <cc:permits
           rdf:resource="http://creativecommons.org/ns#DerivativeWorks" />
      </cc:License>
    </rdf:RDF>
  </metadata>
  <defs
     id="defs3410" />
  <sodipodi:namedview
     pagecolor="#ffffff"
     bordercolor="#666666"
     borderopacity="1"
     objecttolerance="10"
     gridtolerance="10"
     guidetolerance="10"
     inkscape:pageopacity="0"
     inkscape:pageshadow="2"
     inkscape:window-width="1237"
     inkscape:window-height="756"
     id="namedview3408"
     showgrid="false"
     inkscape:zoom="1.1443038"
     inkscape:cx="240.625"
     inkscape:cy="246.875"
     inkscape:window-x="43"
     inkscape:window-y="0"
     inkscape:window-maximized="1"
     inkscape:current-layer="svg3406" />
  <g
     id="g3416"
     transform="translate(-0.87389584,-6.1172566)">
    <path
       style="fill:#acb0c6"
       d="m 121.33888,484.1369 c -2.35737,-1.24405 -5.92016,-4.30801 -7.91731,-6.80881 -3.4918,-4.37238 -3.55691,-4.69053 -1.69627,-8.2886 4.40705,-8.5223 14.77166,-13.5066 30.7747,-14.79945 12.46037,-1.00665 20.13994,-3.0241 25.625,-6.73179 2.75,-1.8589 6.67869,-3.79001 8.73041,-4.29136 3.84262,-0.93896 25.27539,-22.04058 28.67761,-28.2345 0.94941,-1.72843 4.60485,-5.62166 8.12322,-8.65164 4.39701,-3.78665 8.04963,-8.64947 11.68288,-15.55371 5.07747,-9.64865 8.74798,-13.82651 24.63443,-28.03949 l 5.59856,-5.00881 -2.14084,-4.48936 c -2.19215,-4.59699 -4.35015,-5.5705 -6.83657,-3.08408 -1.04039,1.04039 -2.45205,1.04039 -5.43653,0 -7.72998,-2.69469 -17.36841,-1.73206 -24.90817,2.48769 -9.89113,5.53572 -25.20585,11.88944 -32.81418,13.61381 -16.50427,3.74059 -17.53238,4.18459 -25.15528,10.86369 -11.05737,9.68832 -18.99439,13.23361 -31.96853,14.27957 -5.87786,0.47388 -17.54252,2.78679 -25.92148,5.13982 -12.672689,3.55881 -16.096896,5.05737 -20.363128,8.91166 -2.820758,2.54839 -5.595495,4.3449 -6.166081,3.99226 -0.570585,-0.35264 -3.598111,2.13869 -6.727834,5.53629 -3.129723,3.3976 -8.686973,8.13601 -12.349446,10.5298 -3.662472,2.3938 -8.867279,6.63335 -11.566235,9.42123 -7.214181,7.45188 -14.236116,6.30565 -20.570702,-3.35786 -4.51921,-6.89412 -5.148204,-10.61812 -3.202307,-18.95943 1.612927,-6.914 1.560387,-7.88209 -0.69782,-12.85789 -3.188667,-7.02602 -3.123775,-11.71062 0.250469,-18.0814 3.240016,-6.11735 13.452305,-12.92454 19.389686,-12.92454 4.245778,0 8.702131,4.22286 11.445408,10.84571 3.040308,7.33995 13.095816,10.27765 17.264235,5.04372 1.253024,-1.57333 6.195566,-5.04323 10.983427,-7.71089 4.787862,-2.66767 10.027536,-6.17264 11.643718,-7.78883 1.616184,-1.61617 4.448842,-3.89211 6.294797,-5.05761 1.845957,-1.16551 7.376433,-5.05317 12.289943,-8.63925 11.40653,-8.32496 20.5087,-12.9273 25.71229,-13.00091 5.88735,-0.0832 49.21585,-21.90854 54.04562,-27.22365 1.67092,-1.83881 5.46062,-6.08919 8.42157,-9.4453 C 201.09605,300.55012 214.68446,290 216.80352,290 c 1.6018,0 13.36218,-9.22398 14.52097,-11.38918 0.69491,-1.29845 2.22805,-2.37871 3.40699,-2.40057 1.17893,-0.0219 3.23541,-0.86563 4.56993,-1.875 1.33453,-1.00939 3.18519,-1.83525 4.11257,-1.83525 2.49461,0 11.62505,-9.95984 13.75088,-15 1.0149,-2.40625 3.83733,-6.81953 6.27204,-9.80726 4.28597,-5.25953 4.42963,-5.77629 4.51718,-16.25 0.0858,-10.25125 -0.30022,-11.86507 -7.36933,-30.81774 -4.10286,-11 -8.09171,-21.06854 -8.86411,-22.37454 -1.3166,-2.22615 -2.09778,-2.28607 -12.5,-0.95895 -8.3533,1.06572 -11.59553,2.02265 -13.1182,3.87183 -2.6572,3.22696 -8.10295,4.55731 -10.50268,2.56572 -1.36176,-1.13016 -4.87258,-1.31505 -12.95914,-0.68245 -16.21279,1.2683 -25.48751,-0.68562 -30.55598,-6.43731 -5.66838,-6.43244 -9.3187,-12.92329 -12.68783,-22.56091 -3.67227,-10.50485 -11.53929,-30.08935 -13.42601,-33.42339 -5.11089,-9.03144 -11.01201,-24.197934 -11.62878,-29.887154 -0.44481,-4.103121 -1.68113,-12.215166 -2.4938,-16.362846 -0.2694,-1.375 -2.58455,-3.625 -5.14476,-5 -2.86605,-1.539253 -6.48969,-5.336625 -9.4292,-9.881295 -3.96143,-6.124609 -4.76959,-8.465586 -4.74681,-13.75 0.0477,-11.074473 5.96884,-20.351396 16.48525,-25.828375 9.65274,-5.027176 20.45245,-1.923438 29.91027,8.59594 8.49773,9.45152 9.51227,18.083906 3.72058,31.657264 -3.22311,7.553669 -3.39003,8.647392 -1.87099,12.260118 0.9173,2.181622 1.62204,7.218619 1.56609,11.193327 -0.0761,5.408134 0.74799,9.022873 3.27481,14.364163 2.07536,4.386948 3.1023,8.230118 2.66488,9.972928 -1.0746,4.28157 7.06216,17.20131 17.97646,28.54344 10.9492,11.3784 12.71165,11.81214 24.3702,5.99749 4.125,-2.05733 8.46355,-3.74271 9.64122,-3.7453 2.28384,-0.005 11.32707,-3.37975 21.58715,-8.05586 13.09219,-5.96686 20.24459,-7.29776 34.47114,-6.41432 7.25974,0.45081 14.15036,0.45479 15.3125,0.009 2.60474,-0.99953 2.7953,-8.33654 0.45241,-17.41835 -1.2106,-4.69272 -2.45042,-6.65632 -4.97588,-7.88071 -2.57112,-1.246564 -3.36354,-2.538392 -3.36354,-5.483368 0,-2.118941 -0.64014,-8.697623 -1.42254,-14.619292 -1.1588,-8.77054 -1.09543,-11.925414 0.34171,-17.01667 1.70085,-6.025405 2.10009,-6.421899 11.11004,-11.033573 7.90534,-4.046286 10.78429,-4.846806 18.67889,-5.193842 10.34624,-0.454806 12.11905,0.285919 16.63771,6.951641 8.87448,13.09122 8.85053,12.990473 8.08359,34.00327 -0.38626,10.58332 -0.33153,19.824454 0.12162,20.535844 1.26937,1.99265 12.6145,4.02229 33.86071,6.05765 19.2807,1.84707 19.40086,1.8778 27.53922,7.04532 4.49571,2.85459 11.00064,6.9212 14.45539,9.03693 3.45474,2.11571 7.88997,5.11238 9.85607,6.65926 1.96609,1.54687 4.23227,2.8125 5.03593,2.8125 2.14255,0 9.85867,8.33014 9.00122,9.71751 -0.4023,0.65094 1.62909,2.24641 4.51419,3.5455 12.2229,5.50366 22.18623,16.71771 22.18623,24.9713 0,5.17753 -6.82115,17.79989 -15.08409,27.91269 -4.12891,5.05327 -8.12418,10.37807 -8.87834,11.83289 -0.75417,1.45481 -4.03412,6.30136 -7.28879,10.77011 -3.25466,4.46875 -6.75185,10.09375 -7.77153,12.5 -5.49475,12.96659 -7.22723,18.75103 -7.22723,24.13064 0,6.20937 -2.78404,12.11936 -5.70911,12.11936 -1.17747,0 -1.7816,-2.30944 -2.04374,-7.8125 l -0.37215,-7.8125 -3.99126,8.42561 c -2.98472,6.30076 -4.48208,8.23725 -5.9375,7.67876 -1.25246,-0.48062 -1.96593,-2.37012 -2.00149,-5.30061 l -0.0553,-4.55376 -2.47462,4.6875 c -3.08579,5.84522 -6.29065,6.07954 -8.5482,0.625 l -1.68142,-4.0625 -1.5996,10.32474 c -0.87978,5.6786 -2.74221,14.1161 -4.13872,18.75 -1.39653,4.63388 -2.92855,11.94088 -3.4045,16.23776 -0.47595,4.29687 -1.2179,7.8125 -1.64876,7.8125 -0.77595,0 -2.58675,3.69495 -5.04293,10.2901 -1.68569,4.52629 -17.23696,26.74917 -21.9312,31.33983 -2.038,1.99302 -12.7255,8.13617 -23.75,13.65143 -11.02451,5.51527 -22.17906,11.71287 -24.78791,13.77247 -2.60884,2.05958 -8.27063,5.51938 -12.58175,7.68843 -9.91286,4.98745 -31.63065,21.53394 -41.4249,31.56107 -7.98904,8.17898 -21.29968,18.79216 -27.75513,22.13041 -2.15393,1.11384 -7.05581,3.19982 -10.89306,4.63552 -5.7425,2.14854 -6.97681,3.12875 -6.97681,5.54052 0,1.89943 -1.64889,4.22258 -4.6875,6.60432 -7.14719,5.60211 -9.14626,6.35801 -21.86959,8.26937 -7.6396,1.14765 -14.17415,2.99319 -18.55524,5.24048 -8.94098,4.58632 -25.59355,5.70149 -32.29879,2.16295 z M 399.28624,229.375 c 3.10873,-7.32813 13.01351,-21.30905 17.83886,-25.18016 3.83362,-3.07552 5.35544,-5.52191 6.9982,-11.25 3.12376,-10.89215 3.17838,-14.19484 0.23474,-14.19484 -1.04058,0 -2.97787,0.67816 -4.30508,1.50701 -1.9478,1.21643 -2.84841,1.13304 -4.67053,-0.43243 -3.43292,-2.94937 -13.31211,-7.32458 -16.53884,-7.32458 -2.62572,0 -2.79799,0.39465 -2.04612,4.6875 3.0842,17.60946 1.33252,39.86255 -4.25408,54.04311 -1.22302,3.10441 -2.66139,6.76939 -3.19638,8.14439 -1.58559,4.07519 8.10383,-5.67346 9.93923,-10 z"
       id="path3430"
       inkscape:connector-curvature="0" />
    <path
       style="fill:#9b9cac"
       d="M 124.59561,485.42372 C 120.16406,484.66093 111.25,475.89873 111.25,472.30549 c 0,-4.1233 5.55471,-10.49589 11.77249,-13.50587 3.69102,-1.7868 10.79486,-3.31423 20.90808,-4.49557 10.47909,-1.22408 16.91704,-2.63374 20.38102,-4.46263 2.78487,-1.47033 7.87591,-4.06398 11.31341,-5.76367 6.30799,-3.11901 26.57276,-22.78504 29.96304,-29.07775 0.926,-1.71875 4.84513,-5.84343 8.70917,-9.16595 5.08673,-4.37384 8.24802,-8.51335 11.45526,-15 3.53814,-7.15584 6.95558,-11.37891 16.97909,-20.98186 l 12.54936,-12.02282 -1.67462,-4.63108 c -1.4693,-4.06328 -2.06125,-4.53709 -4.82796,-3.86444 -3.81288,0.92701 -3.47796,0.92911 -14.68227,-0.092 -9.65911,-0.88034 -13.50436,0.071 -21.62177,5.3493 -5.82209,3.78579 -30.11901,12.89419 -34.58126,12.96377 -6.26963,0.0978 -12.26271,3.09657 -20.99769,10.50667 -11.25259,9.54587 -17.23505,12.0639 -31.19476,13.12993 -6.22907,0.47568 -12.45059,1.44859 -13.82559,2.16202 -1.375,0.71343 -7.71122,2.56571 -14.080487,4.11616 -9.249583,2.25161 -12.834859,3.81777 -17.8125,7.78102 -3.427608,2.72904 -6.232013,4.50983 -6.232013,3.95724 0,-0.55258 -3.234375,2.12649 -7.1875,5.95351 -3.953125,3.82702 -9.15625,8.26865 -11.5625,9.87032 -2.40625,1.60166 -7.294454,5.62472 -10.862674,8.94016 C 40.549925,437.3052 36.44511,440 34.955191,440 28.3586,440 20.237836,430.94944 19.068386,422.2942 c -0.340414,-2.51944 0.05409,-7.38628 0.876679,-10.8152 1.268525,-5.28781 1.193262,-6.8191 -0.495686,-10.08516 -3.519324,-6.80563 -3.668155,-13.88375 -0.410422,-19.51884 3.676862,-6.36008 13.554267,-13.125 19.163697,-13.125 4.305091,0 7.63606,3.27406 11.755066,11.55424 2.092025,4.20546 6.910361,7.50826 10.95355,7.50826 1.662261,0 4.809117,-1.69717 6.993011,-3.7715 2.183895,-2.07433 6.501969,-5.01799 9.595719,-6.54146 3.09375,-1.52348 8.15625,-4.83771 11.25,-7.36498 8.887311,-7.25997 30.11216,-22.02078 35.8877,-24.95808 2.89449,-1.47207 6.90464,-2.67648 8.91145,-2.67648 3.16505,0 8.84554,-2.08853 21.45085,-7.88675 1.71875,-0.79059 4.8125,-2.62453 6.875,-4.07541 2.0625,-1.45089 8.63539,-5.01913 14.60641,-7.92943 8.97543,-4.37465 11.7307,-6.44944 15.9025,-11.97494 5.23394,-6.9323 15.1711,-15.16581 25.43578,-21.07502 3.26957,-1.88224 8.283,-5.64665 11.14095,-8.36535 2.85795,-2.7187 5.80785,-4.96099 6.55532,-4.98285 0.74748,-0.0219 2.45093,-0.86563 3.78545,-1.875 1.33453,-1.00939 3.18944,-1.83525 4.12203,-1.83525 2.67472,0 14.07656,-12.1016 14.07656,-14.94048 0,-1.40773 0.98437,-3.56282 2.1875,-4.78908 1.20312,-1.22625 3.77866,-4.55478 5.72343,-7.39672 3.30444,-4.82888 3.49961,-5.80812 2.98121,-14.95793 -0.43124,-7.61152 -1.86689,-13.40779 -6.44989,-26.04079 -3.24234,-8.9375 -6.47049,-18.21875 -7.17366,-20.625 -2.15716,-7.38171 -3.0893,-7.89741 -12.866,-7.11791 C 231.78706,177.43859 225,179.53596 225,181.85541 c 0,1.80823 -7.25564,3.30125 -8.24709,1.69704 -0.35036,-0.5669 -7.83001,-1.00247 -16.62145,-0.96795 -8.79142,0.0345 -17.62062,-0.32406 -19.62043,-0.79687 -7.63858,-1.80598 -16.50099,-14.02148 -21.74903,-29.97776 -1.57105,-4.77667 -3.86276,-10.69108 -5.09267,-13.14312 -1.22993,-2.45202 -3.35844,-7.65114 -4.73003,-11.55358 -1.3716,-3.90242 -3.6628,-8.58145 -5.09155,-10.39782 -1.42876,-1.81637 -2.59775,-3.97341 -2.59775,-4.79341 0,-0.82001 -1.45955,-5.0829 -3.24345,-9.47309 -1.78389,-4.390196 -3.4832,-10.252801 -3.77625,-13.028011 -1.57389,-14.905345 -2.30843,-17.456187 -5.4803,-19.031712 -13.08074,-6.497422 -19.6182,-23.47779 -13.89234,-36.083886 2.7004,-5.945225 11.19984,-13.635292 17.29294,-15.646196 13.82281,-4.56194 32.02286,9.082397 33.69241,25.258752 0.59485,5.763578 0.118,8.247229 -3.0156,15.70532 -3.4039,8.101543 -3.58746,9.250938 -2.14671,13.441829 0.86651,2.520518 1.52304,7.7839 1.45895,11.696406 -0.0891,5.442217 0.67913,8.656437 3.26981,13.679788 2.17824,4.22361 3.12576,7.60434 2.65595,9.47624 -1.23526,4.92167 9.92422,21.89452 21.12768,32.13386 6.93169,6.33516 7.30862,6.50407 12.82709,5.74768 3.12705,-0.42861 7.06207,-1.86206 8.74448,-3.18545 1.68242,-1.32338 5.433,-2.80323 8.33464,-3.28853 2.90164,-0.48532 10.3382,-3.0994 16.5257,-5.8091 19.16116,-8.39125 22.23142,-9.10164 38.125,-8.82125 19.82253,0.34972 20,0.29058 20,-6.66488 0,-6.29399 -2.2208,-16.72664 -3.96794,-18.640202 -0.62042,-0.679522 -2.09082,-1.242022 -3.26755,-1.25 -1.36505,-0.0093 -2.24667,-1.145708 -2.43555,-3.139508 -0.16282,-1.71875 -0.89843,-8.46875 -1.6347,-15 -1.04572,-9.276491 -0.98093,-13.212887 0.29605,-17.989051 1.53255,-5.732025 2.14236,-6.385649 9.75969,-10.460757 6.4608,-3.456395 10.17324,-4.530275 18.125,-5.24294 6.47093,-0.579948 10.96176,-0.417343 12.72527,0.460757 2.62864,1.308875 9.14973,9.767961 9.14973,11.868928 0,0.564254 1.16556,2.507697 2.59015,4.318762 2.42719,3.085658 2.56482,4.610281 2.1875,24.231073 L 336.875,108.125 l 6.25,1.55823 c 3.4375,0.85703 15.23224,2.4242 26.21054,3.48261 22.10435,2.13106 21.78752,2.01059 44.41446,16.8881 5.15625,3.3903 11.0625,6.96903 13.125,7.95273 4.61328,2.2003 11.15065,8.88153 10.1982,10.42263 -0.38494,0.62285 1.86271,2.37745 4.99477,3.89912 12.06415,5.86123 21.68203,16.65318 21.68203,24.32884 0,4.34409 -7.79157,19.1891 -13.89189,26.46774 -2.88101,3.4375 -7.72192,9.90625 -10.7576,14.375 -3.03566,4.46875 -7.39819,10.78267 -9.69451,14.03094 -2.29631,3.24826 -5.12019,8.59201 -6.27528,11.875 -1.1551,3.28298 -2.89455,7.81627 -3.86545,10.07397 -0.9709,2.2577 -1.76527,6.67091 -1.76527,9.80713 0,5.99525 -3.16836,12.96296 -5.89451,12.96296 -1.14047,0 -1.62979,-2.44389 -1.6894,-8.4375 l -0.0839,-8.4375 -3.97549,8.4375 c -4.67932,9.93131 -8.31991,11.55425 -8.41203,3.75 l -0.0554,-4.6875 -2.75717,4.67526 c -3.38939,5.74731 -5.18485,5.89074 -7.97753,0.63724 l -2.15957,-4.0625 -0.84964,3.75 c -0.4673,2.0625 -0.91619,5.76025 -0.99754,8.21721 -0.0814,2.45698 -1.57791,9.20698 -3.32574,15 -1.74781,5.79304 -3.51665,14.04841 -3.93075,18.34529 -0.4141,4.29687 -1.16873,7.8125 -1.67697,7.8125 -0.50824,0 -2.21691,3.23437 -3.79706,7.1875 -1.58015,3.95312 -5.1778,10.28125 -7.9948,14.0625 -2.81699,3.78125 -6.72629,9.40625 -8.68733,12.5 -5.21071,8.22044 -8.24269,10.40768 -27.81154,20.06294 -9.73571,4.80358 -21.46786,11.31282 -26.07142,14.46496 -4.60358,3.15214 -10.70049,6.77631 -13.5487,8.05372 -2.84821,1.27742 -9.95983,6.01652 -15.80358,10.53134 -5.84375,4.51483 -13.19537,9.98224 -16.33695,12.14983 -3.14158,2.16757 -7.36033,6.14748 -9.375,8.84426 -3.8471,5.14957 -21.28265,19.2746 -28.22082,22.86246 -2.23523,1.15589 -6.90539,3.06383 -10.37814,4.23988 -5.13106,1.73763 -6.3854,2.73253 -6.69471,5.30998 -0.36013,3.0009 -6.25338,8.78454 -12.14298,11.9171 -1.38797,0.73824 -7.29422,2.01957 -13.125,2.84739 -5.87283,0.8338 -14.32797,3.1173 -18.95633,5.1196 -8.37794,3.62442 -21.96075,5.43412 -30.17446,4.02026 z M 400.06696,228.125 c 4.82595,-9.80703 11.22913,-18.82559 16.8625,-23.75 5.00873,-4.37839 6.01888,-6.14554 8.12518,-14.21424 1.32293,-5.06784 2.07536,-9.74815 1.67207,-10.4007 -0.4033,-0.65255 -2.78492,-0.85865 -5.2925,-0.45799 -3.55633,0.56824 -6.17897,-0.0998 -11.92286,-3.03679 -7.36241,-3.76464 -12.50449,-4.75118 -13.80409,-2.64838 -0.37966,0.6143 0.14965,3.49751 1.17623,6.40716 3.75815,10.65173 0.69639,40.33234 -5.63769,54.65157 -1.37269,3.1032 -2.48744,6.27378 -2.4772,7.04577 0.0294,2.21848 8.57879,-8.06982 11.29836,-13.5964 z"
       id="path3428"
       inkscape:connector-curvature="0" />
    <path
       style="fill:#7c83a4"
       d="m 125.85726,485.29571 c -3.5355,-0.33829 -6.03927,-1.72772 -9.6875,-5.37595 -6.35003,-6.35002 -6.37322,-9.7163 -0.11009,-15.97944 5.52241,-5.5224 13.62726,-8.09553 31.98188,-10.15362 6.92893,-0.77694 13.09569,-2.27038 16.25,-3.93535 2.7959,-1.4758 7.89595,-4.08139 11.33345,-5.79019 6.53461,-3.24841 24.93963,-21.09689 30.02155,-29.11375 1.54366,-2.43517 5.39123,-6.37267 8.55013,-8.75 4.22493,-3.1796 7.10595,-6.96632 10.89675,-14.32241 4.17452,-8.10068 7.5307,-12.28351 17.6704,-22.02281 l 12.5171,-12.02282 -1.64158,-4.53968 c -1.63182,-4.51275 -3.84989,-5.55555 -7.24425,-3.40582 -1.00614,0.63722 -3.35955,0.58805 -5.625,-0.1175 -8.74269,-2.72285 -18.973,-1.04905 -28.2701,4.62535 -5.93457,3.6221 -25.85401,11.54724 -31.25,12.4331 -2.40625,0.39504 -6.0625,1.05097 -8.125,1.45762 -4.192,0.82651 -13.125,5.453 -13.125,6.79757 0,1.96423 -14.48955,11.61915 -20.72787,13.81174 -3.73562,1.31295 -10.06568,2.35825 -14.28105,2.35825 -4.16426,0 -9.38144,0.75091 -11.59373,1.6687 -2.21229,0.91777 -9.22604,2.94961 -15.586103,4.51519 -8.573863,2.11052 -12.937013,3.93831 -16.875,7.06917 -2.921186,2.32248 -5.894892,4.22814 -6.608237,4.2348 -0.713344,0.006 -4.088344,2.85775 -7.5,6.33572 -3.411655,3.47797 -8.17176,7.51287 -10.57801,8.96646 -2.40625,1.45359 -7.635793,5.70425 -11.621206,9.44592 -6.42982,6.0366 -7.683867,6.71553 -11.130865,6.02613 -4.951783,-0.99036 -6.848008,-2.58771 -11.211419,-9.44431 -3.867548,-6.07742 -4.360549,-10.68818 -2.101919,-19.658 1.213554,-4.81947 1.115748,-6.23705 -0.634785,-9.20047 -1.138157,-1.92675 -2.369089,-5.94017 -2.735404,-8.91873 -0.875068,-7.11535 2.928718,-13.73198 11.134587,-19.36845 10.310282,-7.08197 16.492868,-5.15865 21.435155,6.66815 1.680966,4.02252 5.261468,6.98515 10.231693,8.46606 2.049885,0.61077 3.940599,-0.26014 7.5,-3.45466 2.617539,-2.34922 7.290413,-5.54369 10.384163,-7.09882 3.09375,-1.55513 8.71875,-5.26995 12.5,-8.25515 11.25231,-8.88343 28.98719,-21.18405 34.85906,-24.17766 3.26708,-1.66564 6.77457,-2.54921 8.67634,-2.18566 1.75576,0.33563 4.40412,-0.18378 5.88524,-1.15424 1.48112,-0.97048 6.22221,-3.1476 10.53575,-4.83806 4.31353,-1.69047 9.6036,-4.38847 11.7557,-5.99557 2.1521,-1.6071 8.72637,-5.28431 14.60949,-8.1716 8.99492,-4.41447 11.67947,-6.48416 16.875,-13.00998 4.46776,-5.61172 10.15852,-10.43549 20.55342,-17.4221 7.90625,-5.31395 15.66845,-10.90204 17.24932,-12.41799 3.19183,-3.06071 10.7271,-7.37485 12.88127,-7.37485 2.68784,0 13.30302,-11.9639 14.18726,-15.98983 0.48444,-2.2056 1.29031,-4.01017 1.79084,-4.01017 0.50054,0 2.74512,-2.60343 4.98797,-5.78539 3.94449,-5.59607 4.06101,-6.1176 3.56118,-15.9375 -0.4145,-8.14331 -1.68384,-13.36751 -6.41498,-26.40211 -3.24402,-8.9375 -6.48425,-18.21875 -7.2005,-20.625 -0.71625,-2.40625 -1.87517,-5.07813 -2.57537,-5.9375 C 249.3056,174.2393 225,177.78368 225,181.78143 c 0,1.36244 -3.64526,1.58259 -19.0625,1.15127 -28.23811,-0.79001 -28.83398,-0.91314 -34.08039,-7.04239 -5.96578,-6.96969 -9.78544,-14.01374 -13.15844,-24.26626 -1.53786,-4.67448 -4.12418,-11.15223 -5.74738,-14.395 C 151.32807,133.98629 150,130.48478 150,129.44791 c 0,-1.03686 -1.89044,-5.41493 -4.20098,-9.72905 C 139.49819,107.95422 132.5,85.078951 132.5,76.247741 c 0,-2.94938 -0.98881,-4.340589 -4.79112,-6.740887 -17.40065,-10.984545 -20.22487,-30.098389 -6.4253,-43.485407 6.72813,-6.526992 12.02153,-8.533642 20.06133,-7.604956 7.00264,0.808883 13.62279,5.054113 19.1309,12.26786 7.107,9.307761 7.31268,18.959398 0.68164,31.986784 -1.91795,3.768009 -2.07796,5.265679 -0.93488,8.75 0.75854,2.312126 1.45244,7.860115 1.54202,12.328865 0.12312,6.14153 0.98658,9.734103 3.5371,14.716455 2.25961,4.414085 3.15145,7.717405 2.69982,9.999995 -0.91363,4.61759 11.25503,22.8375 21.13225,31.64092 6.89315,6.14377 7.51049,6.42332 12.8543,5.821 3.08737,-0.348 6.59913,-1.5248 7.80393,-2.61512 1.20479,-1.09033 5.7738,-2.9004 10.15334,-4.02239 4.37953,-1.12198 11.98287,-3.87197 16.89628,-6.11109 16.83179,-7.67049 21.10667,-8.61576 39.40839,-8.7141 l 16.875,-0.0907 -0.1386,-9.46699 c -0.15681,-10.71049 -2.37205,-16.777454 -6.12719,-16.780798 -2.01445,-0.0018 -2.54097,-0.947716 -2.7844,-5.002212 -0.16511,-2.75 -0.90867,-9.075406 -1.65237,-14.056457 -0.98928,-6.625745 -0.97108,-10.892273 0.0677,-15.89642 1.39881,-6.738023 1.54452,-6.907968 9.77739,-11.403043 6.79033,-3.707479 10.23244,-4.731775 18.35739,-5.462757 13.18604,-1.186315 17.20393,1.172948 22.21258,13.042973 0.57423,1.360863 1.91194,3.433304 2.97269,4.605423 1.63655,1.808365 1.82481,5.265361 1.24305,22.825722 -0.61811,18.657279 -0.47605,20.799499 1.44303,21.760139 2.94724,1.47531 16.72867,3.57098 35.25365,5.36085 8.59375,0.83033 17.3125,2.3348 19.375,3.34329 3.50602,1.71431 12.64795,7.44847 25.48314,15.98396 3.01573,2.00547 6.95323,4.42073 8.75,5.36725 5.04913,2.65978 10.0217,7.76275 9.32743,9.57201 -0.39195,1.02137 1.50431,2.57317 5.07378,4.15212 11.6323,5.14552 21.9923,16.54342 21.98967,24.19264 -10e-4,4.77525 -6.68628,17.32238 -14.51099,27.2373 -4.06923,5.15625 -8.44935,11.0625 -9.7336,13.125 -1.28425,2.0625 -4.45556,6.5625 -7.04736,10 -6.40703,8.49763 -11.19786,17.38221 -11.25137,20.86555 -0.0244,1.58645 -0.84817,4.2907 -1.8307,6.00945 -0.98252,1.71875 -1.80635,6.00226 -1.8307,9.51893 -0.043,6.21031 -3.37337,12.98107 -6.38502,12.98107 -0.6376,0 -1.19704,-3.79687 -1.24319,-8.4375 l -0.0839,-8.4375 -3.97549,8.4375 c -4.65431,9.87823 -7.96691,11.32373 -8.59374,3.75 l -0.38796,-4.6875 -2.2196,4.0625 c -2.68881,4.92127 -6.21187,5.25259 -8.25156,0.77596 -0.82359,-1.80759 -1.75983,-3.02414 -2.08053,-2.70344 -0.3207,0.32071 -1.11692,4.79357 -1.7694,9.93972 -0.65246,5.14615 -2.61901,14.30062 -4.3701,20.34327 C 376.43271,305.33567 375,312.49026 375,315.1921 c 0,3.18463 -0.8793,5.85626 -2.5,7.59586 -1.375,1.4759 -2.5,3.44907 -2.5,4.38481 0,2.73247 -3.56911,8.95499 -11.65929,20.32723 -12.06754,16.96315 -13.65976,18.31035 -31.95057,27.03385 -9.20419,4.38979 -20.80384,10.75431 -25.77703,14.14341 -4.97317,3.38909 -11.81136,7.4979 -15.19596,9.13069 -8.72283,4.20802 -37.70408,26.43652 -42.91715,32.91729 -6.61843,8.22783 -21.38331,18.81945 -32.86328,23.57452 -8.58273,3.55503 -10.36398,4.78488 -10.88672,7.5167 -0.36028,1.88281 -2.88629,5.05164 -5.96385,7.48154 -5.39204,4.25729 -11.42734,6.17392 -24.03615,7.6332 -3.78125,0.43761 -10.25,2.35 -14.375,4.24974 -7.56891,3.4858 -18.54276,5.0692 -28.51774,4.11477 z M 399.48315,229.51617 c 1.71788,-5.103 14.60318,-23.58817 16.8524,-24.17636 1.3124,-0.3432 3.47041,-2.38819 4.79559,-4.54441 2.88945,-4.70153 6.78663,-19.10815 5.66149,-20.92869 -0.4728,-0.765 -2.74075,-0.96509 -5.5532,-0.48992 -3.83859,0.64852 -5.74268,0.17906 -9.88838,-2.438 C 405.97169,173.54295 395,171.18379 395,173.42294 c 0,0.69451 0.84375,3.65418 1.875,6.57706 1.03125,2.92287 1.875,9.32284 1.875,14.22214 0,10.886 -3.86341,31.75428 -7.39496,39.944 -1.43276,3.32261 -2.58825,6.69761 -2.56774,7.5 0.0479,1.87393 9.64471,-9.02755 10.69585,-12.14997 z"
       id="path3426"
       inkscape:connector-curvature="0" />
    <path
       style="fill:#616894"
       d="m 120,483.19284 c -3.9504,-2.15795 -8.75,-8.59846 -8.75,-11.7415 0,-3.85319 8.80889,-11.94814 15.03981,-13.82087 3.07185,-0.92325 11.71599,-2.43803 19.20919,-3.3662 8.84614,-1.09573 15.42165,-2.63595 18.75,-4.39187 2.8193,-1.48738 7.9385,-4.11183 11.376,-5.83213 6.77309,-3.38958 24.02039,-20.06578 30.51336,-29.50301 2.17578,-3.16237 5.14941,-6.3885 6.60809,-7.16916 4.47645,-2.39571 8.42694,-7.4641 13.66429,-17.53095 4.80462,-9.23509 6.44298,-11.08721 23.90176,-27.02015 5.13862,-4.68953 5.43614,-5.70659 3.125,-10.68304 -1.60223,-3.45 -3.96754,-4.19716 -7.06971,-2.23321 -1.07232,0.67886 -3.79621,0.49882 -6.98853,-0.46193 -7.3551,-2.21356 -17.89305,-0.56062 -25.31551,3.97088 -8.27721,5.05335 -27.25546,12.42582 -34.70903,13.48341 -8.72776,1.23838 -16.62961,4.91956 -22.47972,10.47249 -10.39491,9.86682 -16.18395,12.38856 -31.875,13.8849 -5.84375,0.55726 -14.5625,2.15926 -19.375,3.55997 -4.8125,1.40072 -11.062164,3.14194 -13.888141,3.86938 -2.825978,0.72744 -7.607228,3.28535 -10.625,5.68425 -3.017773,2.3989 -6.070504,4.3671 -6.783849,4.37376 -0.713344,0.006 -4.088344,2.86876 -7.5,6.36021 -3.411655,3.49144 -7.816792,7.19673 -9.789194,8.23398 -1.9724,1.03726 -7.226055,5.27209 -11.674786,9.41072 -7.219106,6.71593 -8.504421,7.44165 -11.956795,6.75118 -4.812164,-0.96244 -7.774721,-3.59448 -11.824982,-10.50573 -2.742823,-4.68026 -3.051408,-6.30218 -2.344078,-12.32046 0.448009,-3.81186 1.330601,-7.89489 1.961316,-9.07339 0.806659,-1.50725 0.437794,-3.22347 -1.243761,-5.78686 -1.314784,-2.00427 -2.742126,-5.98882 -3.171871,-8.85457 -1.079441,-7.19824 3.675417,-15.23284 12.072412,-20.39955 9.882335,-6.08067 14.948988,-4.66864 19.727853,5.49796 2.62591,5.58637 5.768983,8.43692 11.031714,10.00499 2.050315,0.6109 3.939853,-0.26027 7.5,-3.45784 2.617538,-2.35096 7.64566,-5.72934 11.173601,-7.50751 3.527941,-1.77818 8.871691,-5.24792 11.875,-7.71052 19.628171,-16.09441 38.450361,-27.49916 43.353251,-26.26861 1.74612,0.43825 4.18086,-0.0235 5.83335,-1.10621 1.55996,-1.02213 6.35841,-3.28958 10.6632,-5.03878 4.3048,-1.7492 9.57827,-4.48805 11.71883,-6.08635 2.14057,-1.5983 8.85487,-5.34236 14.92067,-8.32015 9.21015,-4.52137 11.84173,-6.51465 15.95902,-12.08801 4.6421,-6.28377 14.13035,-14.465 21.13724,-18.22552 6.26251,-3.36103 17.33879,-11.27375 17.92709,-12.80684 0.63482,-1.65433 9.94921,-6.94 12.22962,-6.94 2.77372,0 12.45175,-10.69698 13.82504,-15.2806 0.77769,-2.59568 1.79208,-4.7194 2.25421,-4.7194 0.46213,0 2.62759,-2.48884 4.81212,-5.53074 3.54769,-4.94009 3.99072,-6.52254 4.1484,-14.81761 0.0971,-5.10778 -0.2503,-9.97748 -0.77198,-10.82155 -1.20017,-1.94194 -11.7134,-31.82746 -13.12257,-37.30304 -0.58006,-2.25386 -1.74165,-4.92574 -2.58134,-5.9375 -3.24611,-3.91132 -24.09665,-1.18462 -27.96389,3.65694 -1.13215,1.41739 -5.53567,1.57631 -24.38083,0.8799 l -22.99912,-0.84993 -4.94654,-5.57405 c -6.9653,-7.84892 -10.32854,-15.04006 -21.81299,-46.63962 -1.7115,-4.70922 -4.46303,-10.55334 -6.11452,-12.98694 -1.65149,-2.4336 -3.0027,-5.03543 -3.0027,-5.78184 0,-0.74641 -1.34786,-5.02729 -2.99525,-9.51307 C 135.30226,93.24146 132.5,80.567164 132.5,75.252936 c 0,-1.807705 -1.64958,-3.762909 -4.91258,-5.822747 -19.31021,-12.190002 -19.71544,-35.953653 -0.81654,-47.884 10.05572,-6.347904 24.34297,-2.823289 32.93426,8.12477 7.57285,9.650241 8.16537,17.995077 2.21863,31.246161 -3.19826,7.126677 -3.2663,7.691731 -1.44973,12.039374 1.28245,3.069336 1.669,6.562973 1.18154,10.678782 -0.615,5.19278 -0.14145,7.283768 3.13414,13.838805 2.65103,5.305189 3.64482,8.790759 3.17545,11.137549 -0.54627,2.73136 0.83827,5.65467 6.9099,14.58957 4.17618,6.14559 10.73215,13.91452 14.56884,17.2643 6.57539,5.74092 7.29669,6.05434 12.56666,5.46032 3.07498,-0.34658 6.55243,-1.49295 7.72765,-2.54745 1.17523,-1.05451 5.6585,-2.82551 9.96283,-3.93557 4.30432,-1.11005 11.93185,-3.88934 16.95004,-6.1762 16.74372,-7.63036 21.01358,-8.5759 39.46901,-8.74021 L 293.125,124.375 293.05554,115 c -0.0789,-10.64873 -2.36335,-16.869375 -6.19633,-16.872788 -2.06309,-0.0019 -2.5385,-0.955765 -2.80444,-5.627212 -0.17612,-3.09375 -0.90127,-9.172554 -1.61145,-13.508451 -0.93274,-5.694858 -0.88528,-9.946746 0.17097,-15.315568 l 1.46219,-7.432116 8.27426,-4.476093 c 6.85743,-3.709636 10.08447,-4.627926 18.84588,-5.362806 l 10.57163,-0.886713 4.43921,4.439215 c 2.44158,2.441568 6.01206,7.547884 7.93443,11.347371 3.48816,6.894212 3.49391,6.947771 2.85398,26.535684 -0.71752,21.963037 -1.095,20.968157 8.62913,22.743027 2.75,0.50194 14.12734,1.92099 25.28296,3.15345 21.82618,2.41132 24.55981,3.379 37.70929,13.34883 3.02074,2.29029 6.03355,4.16417 6.69512,4.16417 0.66158,0 3.33352,1.6875 5.93763,3.75 2.60411,2.0625 5.33736,3.75 6.07389,3.75 2.4255,0 10.05982,7.59859 9.38946,9.34551 -0.42713,1.11308 1.33215,2.58174 5.07679,4.23816 11.79688,5.21833 21.96258,16.73594 21.95887,24.87913 -0.002,4.16528 -7.17234,17.24697 -14.54577,26.5372 -4.0924,5.15625 -8.47417,11.0625 -9.73727,13.125 -1.26311,2.0625 -4.41711,6.5625 -7.00891,10 -6.40702,8.49762 -11.19786,17.38221 -11.25136,20.86555 -0.0244,1.58645 -0.84818,4.2907 -1.8307,6.00945 -0.98253,1.71875 -1.80635,6.00226 -1.8307,9.51892 -0.043,6.21032 -3.37338,12.98108 -6.38503,12.98108 -0.6376,0 -1.19661,-3.79688 -1.24223,-8.4375 l -0.083,-8.4375 -3.97954,8.40769 c -4.66339,9.85247 -7.96864,11.3066 -8.59158,3.77981 l -0.38792,-4.6875 -2.2196,4.0625 c -2.24498,4.10894 -7.1554,5.71515 -7.1554,2.34055 0,-0.94706 -0.77505,-2.36516 -1.72233,-3.15134 -2.04436,-1.69667 -3.23326,1.51056 -3.26061,8.79595 -0.01,2.50123 -1.476,9.53248 -3.25916,15.625 -1.78315,6.09254 -3.55956,14.43066 -3.94757,18.52919 -0.41985,4.43467 -1.56178,8.37095 -2.82035,9.72187 -1.16318,1.24853 -2.77768,4.48234 -3.58779,7.18625 -0.81013,2.70393 -3.30813,7.32908 -5.55114,10.27813 -2.243,2.94905 -5.96487,8.1744 -8.27082,11.6119 -7.82201,11.6603 -11.15854,14.22343 -30.83103,23.68434 -10.3817,4.99276 -21.91295,11.35368 -25.625,14.13538 -3.71206,2.78171 -9.56851,6.40427 -13.01434,8.05014 -8.74592,4.17745 -40.76437,28.74148 -43.45755,33.33991 -1.22249,2.08732 -4.03499,5.05124 -6.25,6.58652 -2.21502,1.53527 -6.61356,4.91798 -9.77454,7.51715 -3.16097,2.59915 -10.44329,6.61167 -16.18295,8.91672 -8.91647,3.58085 -10.57511,4.71214 -11.39313,7.77086 -2.00055,7.48037 -10.56983,12.21349 -26.05169,14.38932 -6.38437,0.89727 -13.74444,2.93833 -18.44084,5.11396 -6.8833,3.1887 -9.195,3.61472 -19.375,3.57065 -7.32201,-0.0317 -12.70467,-0.67579 -14.68416,-1.75711 z M 399.48638,229.64909 c 1.54286,-4.86113 14.36393,-23.26245 16.73163,-24.01394 1.32433,-0.42033 3.54819,-2.60931 4.94193,-4.86441 3.04745,-4.93089 6.82836,-18.96939 5.63079,-20.9071 -0.53826,-0.87092 -2.72523,-1.08384 -5.90667,-0.57512 -2.77857,0.44432 -5.37981,0.36377 -5.78051,-0.179 -1.5952,-2.16073 -12.48437,-6.60952 -16.17796,-6.60952 -4.50221,0 -4.58714,0.31064 -2.05059,7.5 3.7283,10.56714 0.9956,36.95341 -5.54585,53.54919 -1.41854,3.59885 -2.57121,7.22566 -2.5615,8.05958 0.0235,2.02183 9.71227,-8.78862 10.71872,-11.95968 z"
       id="path3424"
       inkscape:connector-curvature="0" />
    <path
       style="fill:#333b70"
       d="m 120.79126,483.56804 c -3.5601,-2.06848 -9.46341,-8.9567 -9.50462,-11.09038 -0.0202,-1.04352 1.33175,-3.9111 3.00423,-6.37237 4.32822,-6.36955 12.81881,-9.63213 30.47252,-11.70933 16.33915,-1.92252 18.0372,-2.37546 23.36161,-6.23145 2.0625,-1.49367 6.16095,-3.66407 9.10767,-4.8231 2.94672,-1.15902 7.16547,-4.21311 9.375,-6.78686 2.20953,-2.57375 6.88467,-7.49205 10.38919,-10.92955 3.50451,-3.4375 7.85568,-8.61644 9.66925,-11.50875 1.81356,-2.89233 4.57123,-5.93101 6.12814,-6.75265 4.5499,-2.40114 7.97919,-6.7131 13.04684,-16.40499 4.45105,-8.51264 10.75352,-15.81419 23.84641,-27.62652 5.65435,-5.10134 6.1201,-6.44198 3.91744,-11.27629 -1.21679,-2.67056 -2.21517,-3.06174 -7.8125,-3.061 -3.52959,4.6e-4 -10.30548,-0.0519 -15.05753,-0.11625 -7.62531,-0.10338 -9.53557,0.38367 -16.26463,4.14679 -10.51648,5.88115 -25.63086,11.72731 -35.90883,13.88935 -10.07339,2.119 -16.70235,5.25746 -21.06145,9.97148 -4.16499,4.50409 -12.10895,9.85344 -17.5,11.78423 -2.40625,0.8618 -9.15625,2.0332 -15,2.60312 -16.42877,1.60227 -38.143355,8.06203 -44.437289,13.21943 -2.857355,2.34138 -5.726225,4.25705 -6.375266,4.25705 -0.649041,0 -3.403609,2.30479 -6.12126,5.12176 -2.717652,2.81697 -8.263703,7.39778 -12.324556,10.17959 -4.060855,2.78181 -8.93522,6.82529 -10.831923,8.98551 -1.896701,2.16023 -4.810492,4.65658 -6.47509,5.54744 -6.819096,3.64946 -17.88911,-6.08953 -19.24656,-16.93241 -0.328917,-2.62729 0.214927,-7.40977 1.208542,-10.62773 1.663973,-5.38902 1.620953,-6.15606 -0.545013,-9.71771 -3.102903,-5.10231 -3.030807,-13.82466 0.166063,-20.09104 2.648391,-5.19127 13.236477,-12.45719 18.107352,-12.42589 3.563093,0.0229 7.471691,3.54398 10.362898,9.33548 3.487267,6.98549 7.076248,9.875 12.265476,9.875 3.232021,0 5.098372,-0.87704 7.125327,-3.34834 1.510464,-1.84159 5.766905,-4.94076 9.458758,-6.88706 3.691852,-1.94631 9.316852,-5.64305 12.5,-8.21498 9.03928,-7.30358 27.707701,-20.15306 33.912541,-23.34201 3.09375,-1.59002 7.166,-2.78496 9.04944,-2.65541 3.24545,0.22321 8.5692,-1.97957 22.82556,-9.44443 3.4375,-1.79992 10.46841,-5.47008 15.62424,-8.15589 14.58254,-7.59645 17.07027,-9.40549 21.80606,-15.85693 4.26434,-5.80919 14.2327,-14.39636 20.69899,-17.831 6.14257,-3.26269 18.74571,-12.37971 18.74571,-13.56053 0,-0.66188 0.70312,-1.21593 1.5625,-1.23122 0.85937,-0.0152 2.96875,-1.12778 4.6875,-2.4722 1.71875,-1.34443 4.0324,-2.45691 5.14145,-2.4722 2.76797,-0.0381 13.31449,-11.54594 14.34522,-15.65274 0.46119,-1.8375 2.74688,-5.40171 5.07933,-7.92048 4.57624,-4.94182 4.90597,-5.86764 6.00037,-16.84769 0.51149,-5.13186 0.17518,-8.43848 -1.14426,-11.25 -1.02776,-2.19004 -4.74735,-12.41939 -8.26575,-22.73189 -3.5184,-10.3125 -6.9743,-19.45312 -7.67977,-20.3125 -1.57019,-1.9127 -13.51569,-2.05841 -20.04723,-0.24452 -2.5826,0.71721 -5.67635,2.33121 -6.875,3.58666 -2.01632,2.11187 -3.81586,2.21457 -24.05436,1.37267 -12.03125,-0.50047 -22.83246,-1.32372 -24.00271,-1.82942 C 171.85601,178.3681 163.43222,165.07751 159.375,152.5 c -1.21975,-3.78125 -3.33051,-9.0892 -4.6906,-11.79544 -1.36009,-2.70625 -3.5907,-8.32549 -4.95693,-12.48719 -1.36621,-4.16171 -3.47322,-8.97876 -4.68225,-10.70456 -1.20901,-1.72579 -2.914,-5.38781 -3.78886,-8.13781 -0.87485,-2.75 -2.33481,-6.47181 -3.24434,-8.27069 -1.4763,-2.919831 -2.65071,-8.217894 -5.32553,-24.024808 -0.63704,-3.764605 -1.88634,-5.51995 -5.81149,-8.165507 -6.5464,-4.412286 -12.76796,-13.804564 -13.82835,-20.875735 -1.51727,-10.117889 4.8747,-21.901599 14.56079,-26.843072 14.89483,-7.59878 33.9792,2.861621 37.71498,20.672108 1.36189,6.492868 1.2275,7.351941 -2.62367,16.771151 -3.88429,9.500194 -3.97856,10.120508 -2.1889,14.403766 1.24546,2.980819 1.62896,6.512961 1.14801,10.573773 -0.59766,5.046323 -0.11612,7.36176 2.79273,13.428382 1.99736,4.165652 3.38421,8.979522 3.21218,11.149752 -0.41942,5.29102 12.27312,24.29225 21.45458,32.11838 8.22098,7.00742 12.42629,7.57729 21.25907,2.88085 3.16183,-1.68116 7.88623,-3.45271 10.49868,-3.93677 2.61245,-0.48407 8.91146,-2.77084 13.99782,-5.08173 17.30273,-7.86116 19.62362,-8.39815 39.41556,-9.11956 l 18.66348,-0.68029 0.96859,-3.63445 c 0.97359,-3.65322 -0.45518,-13.43852 -2.8858,-19.76429 -0.92317,-2.402597 -2.09051,-3.318505 -3.98285,-3.124997 -2.48535,0.25415 -2.75769,-0.53128 -3.80591,-10.976263 -1.5138,-15.084174 -1.43401,-21.629572 0.32876,-26.96982 1.29248,-3.915527 2.69215,-5.039347 11.28691,-9.0625 8.46408,-3.961973 11.0525,-4.59268 18.84839,-4.59268 8.31816,0 9.30051,0.282502 12.35094,3.551899 1.82271,1.953543 4.14294,5.187918 5.15606,7.1875 1.01314,1.99958 2.85591,4.995706 4.09506,6.658057 2.01974,2.709545 2.18889,5.123459 1.63381,23.316294 -0.46063,15.09782 -0.22893,20.60203 0.90495,21.49754 1.82338,1.44005 23.78714,4.92037 37.77413,5.9856 14.12412,1.07568 16.90487,2.01775 28.47579,9.6471 5.65081,3.7259 15.33671,10.11663 21.52421,14.20165 7.93464,5.23846 11.1398,8.06605 10.87604,9.59485 -0.2648,1.53485 1.41303,2.9955 5.74796,5.0039 11.09045,5.13828 21.501,16.7901 21.501,24.0646 0,4.21085 -7.80169,18.19167 -15.70113,28.13685 -4.48535,5.64693 -8.76812,11.4511 -9.51726,12.89815 -0.74915,1.44706 -3.2119,4.92127 -5.47279,7.72048 -5.92212,7.33223 -11.80168,17.70084 -11.85312,20.90304 -0.0244,1.51661 -0.84818,4.16374 -1.8307,5.88249 -0.98253,1.71875 -1.80635,6.28351 -1.8307,10.14392 -0.033,5.22056 -0.72606,7.88565 -2.70515,10.40165 -1.46346,1.86051 -3.12009,2.92074 -3.68136,2.35608 -0.56129,-0.56466 -1.20068,-4.40165 -1.42087,-8.52665 -0.3923,-7.3493 -0.43272,-7.42465 -2.01147,-3.75 -4.71405,10.97217 -5.99745,13.06268 -8.03795,13.09275 -1.74085,0.0256 -2.19336,-1.05249 -2.21621,-5.28025 l -0.0288,-5.3125 -2.71699,4.6875 c -3.04394,5.25159 -6.01968,6.01449 -7.86668,2.01679 -2.26362,-4.89944 -3.72625,-3.03642 -4.5501,5.79571 -0.4489,4.8125 -2.27702,13.7348 -4.0625,19.82734 -1.78543,6.09252 -3.24627,13.3182 -3.24627,16.05704 0,2.75141 -1.01286,6.4644 -2.26352,8.29766 -1.24494,1.82487 -3.12363,5.56796 -4.17487,8.31796 -1.84291,4.82098 -11.97292,19.92936 -19.93752,29.73577 -2.92904,3.60638 -8.63633,7.13432 -23.9318,14.7933 -11.04702,5.53165 -23.09802,12.28302 -26.77999,15.00305 -3.68198,2.72004 -9.19985,6.01944 -12.26195,7.33202 -7.80016,3.34353 -40.00678,28.04945 -43.1093,33.06943 -2.39325,3.87237 -16.32859,15.27418 -23.67736,19.37269 -1.78128,0.99344 -6.89494,3.29519 -11.36369,5.11499 -6.00834,2.44676 -8.22791,4.00272 -8.52004,5.97266 -0.21727,1.46516 -2.85899,4.83278 -5.87047,7.4836 -5.58452,4.91568 -10.6404,6.60196 -25.19954,8.40474 -3.55578,0.4403 -9.9344,2.44129 -14.17474,4.44665 -6.80022,3.216 -9.06039,3.64161 -19.15995,3.60809 -6.29764,-0.0209 -12.50045,-0.64819 -13.784,-1.39395 z M 399.57182,230.2858 c 0.39394,-1.56954 3.18268,-6.60894 6.19722,-11.19864 3.01452,-4.58971 5.48096,-8.71844 5.48096,-9.17493 0,-0.4565 2.20025,-2.28607 4.88945,-4.0657 5.33185,-3.52844 9.62305,-12.49895 10.35066,-21.63744 l 0.38489,-4.83409 -5,-0.0645 c -2.80343,-0.0362 -8.21958,-1.61498 -12.32864,-3.59375 -6.8525,-3.2999 -12.49265,-4.43708 -14.08909,-2.84064 -0.37871,0.3787 0.20723,3.76996 1.30209,7.53614 1.09485,3.76616 1.99064,9.90007 1.99064,13.63091 0,9.17151 -4.13855,31.31725 -7.37059,39.44066 -1.44617,3.63483 -2.62941,7.26462 -2.62941,8.06619 0,2.32818 10.03086,-8.11267 10.82182,-11.26416 z"
       id="path3422"
       inkscape:connector-curvature="0" />
    <path
       style="fill:#14278b"
       d="m 116.86239,479.71854 c -3.08682,-2.9048 -5.61239,-6.17052 -5.61239,-7.25715 0,-2.66243 5.64787,-10.16276 9.0938,-12.0765 4.81311,-2.67302 14.93639,-5.13645 24.6562,-5.99993 12.36577,-1.09854 18.56596,-2.75697 23.125,-6.18555 2.0625,-1.55107 5.88484,-3.52001 8.49409,-4.3754 2.67117,-0.87569 6.76756,-3.82541 9.375,-6.75076 2.547,-2.85753 7.53137,-8.00863 11.07638,-11.44688 3.545,-3.43826 7.89617,-8.61781 9.66925,-11.51012 1.77308,-2.89233 4.46553,-5.92333 5.98323,-6.73558 4.8625,-2.60232 8.14069,-6.54623 12.88839,-15.50567 6.36365,-12.00896 9.29387,-15.6206 19.45666,-23.9812 9.32079,-7.66791 11.08789,-10.87084 8.60116,-15.58988 -2.15827,-4.09572 -3.6196,-4.77291 -6.98786,-3.23822 -2.05864,0.93797 -4.3122,0.94219 -7.61511,0.0143 -7.02468,-1.9736 -17.39233,-0.22741 -25.31619,4.26394 -9.958,5.64432 -25.4747,11.54605 -36.18986,13.7647 -9.47998,1.96288 -16.19295,5.32983 -20.68514,10.3748 -3.72374,4.18193 -11.85743,9.44572 -17.37625,11.24517 -2.68194,0.87446 -9.43194,2.0431 -15,2.59699 -16.46965,1.63831 -37.533741,7.9212 -43.816334,13.06931 -2.923192,2.39531 -5.912651,4.35514 -6.643241,4.35514 -0.73059,0 -3.485158,2.3186 -6.12126,5.15244 -2.636104,2.83385 -7.605415,7.00364 -11.042915,9.26621 -3.4375,2.26256 -9.22251,6.98106 -12.855577,10.48556 -5.583427,5.38581 -7.130833,6.25406 -10,5.611 -5.269892,-1.18115 -9.277839,-4.58376 -12.502024,-10.61379 -2.43696,-4.55771 -2.816255,-6.62197 -2.163854,-11.77642 0.435086,-3.4375 1.510299,-7.34494 2.389363,-8.68319 1.363512,-2.07576 1.16927,-3.06539 -1.322305,-6.73693 -3.535835,-5.21034 -3.861045,-13.14793 -0.801543,-19.56378 2.22501,-4.66589 10.878524,-11.06499 17.012644,-12.58049 4.124737,-1.01906 8.483602,2.3794 12.106931,9.43939 2.952785,5.75344 6.17511,8.54525 10.969798,9.50419 3.299207,0.65983 4.472985,0.17886 7.417977,-3.03965 1.924225,-2.10295 6.519196,-5.43569 10.211049,-7.4061 3.691852,-1.97043 9.316852,-5.67523 12.5,-8.23293 9.131885,-7.33755 27.780151,-20.20088 33.550241,-23.14253 2.89449,-1.47564 6.98296,-2.68298 9.08551,-2.68298 3.63119,0 9.0361,-2.25102 23.15179,-9.64223 3.4375,-1.79992 10.46841,-5.47008 15.62424,-8.15589 14.58254,-7.59645 17.07027,-9.40549 21.80606,-15.85693 4.26434,-5.80919 14.2327,-14.39636 20.69899,-17.831 5.34336,-2.83819 18.74571,-12.31136 18.74571,-13.25003 0,-0.4911 3.32603,-2.46348 7.39116,-4.38306 8.04856,-3.80056 17.02954,-12.51252 18.35885,-17.80892 0.4591,-1.8292 2.93539,-5.60082 5.50287,-8.38137 4.32378,-4.68263 4.72847,-5.77925 5.48633,-14.86658 0.68899,-8.26169 0.44111,-10.5523 -1.56967,-14.50502 -1.31334,-2.58168 -3.54871,-8.35022 -4.96753,-12.81897 -4.45366,-14.02755 -9.16968,-26.81379 -10.48876,-28.4375 -2.92517,-3.6007 -23.53634,-1.01959 -27.21325,3.40789 -1.72909,2.08203 -3.58679,2.19199 -23.87111,1.41285 -17.34715,-0.66634 -22.6654,-1.28345 -25.16283,-2.91983 -4.78039,-3.13222 -12.90201,-16.11832 -16.02962,-25.63062 -1.5295,-4.65179 -3.86002,-10.60673 -5.17891,-13.23319 -1.31892,-2.62648 -3.73549,-8.7286 -5.37017,-13.56029 -1.63467,-4.83169 -3.76387,-9.71401 -4.73156,-10.8496 -3.98515,-4.67661 -13.13459,-37.401363 -11.92829,-42.663801 0.21861,-0.953717 -1.29001,-2.547494 -3.35251,-3.541729 -7.81838,-3.768878 -14.66274,-12.860769 -16.25866,-21.597645 -1.74151,-9.53388 4.08575,-20.260751 14.61845,-26.909746 13.62693,-8.60231 33.82472,2.200687 37.57905,20.099548 1.36623,6.513613 1.2325,7.407144 -2.48328,16.591516 -3.72564,9.208738 -4.29437,15.529917 -1.54989,17.226104 0.54019,0.333858 0.70074,3.841171 0.35678,7.794028 -0.51826,5.955969 -0.0719,8.364616 2.60638,14.062015 1.77746,3.78125 3.23724,8.44981 3.24396,10.37458 0.0236,6.77335 11.37218,23.71197 21.92926,32.73116 6.62149,5.65691 7.26196,5.92111 13.01425,5.36838 3.57592,-0.3436 7.45182,-1.68398 9.47792,-3.27772 1.88537,-1.48303 4.4574,-2.6964 5.71567,-2.6964 3.02222,0 12.69278,-3.28789 20.63086,-7.01426 C 252.84118,126.13888 258.18795,125 275.74691,125 c 11.78089,0 16.88129,-0.44616 17.55459,-1.53559 1.43005,-2.31386 0.78897,-13.35837 -1.1443,-19.71441 -1.39695,-4.592722 -2.20714,-5.570982 -4.4148,-5.33065 -3.05027,0.33206 -3.31357,-0.443376 -4.76865,-14.04435 -1.3255,-12.389792 -0.98546,-21.091963 0.9848,-25.20279 1.11645,-2.329384 4.47686,-4.978528 9.80741,-7.731565 6.65335,-3.43621 9.95636,-4.305949 18.39968,-4.844938 10.15686,-0.648376 10.33558,-0.608723 13.75,3.050587 1.90265,2.039126 4.28829,5.343523 5.30141,7.343105 1.01314,1.99958 2.82149,4.95195 4.01857,6.560821 1.9163,2.575509 2.1132,5.36428 1.64701,23.327231 -0.38944,15.005109 -0.12983,20.714429 0.98143,21.583039 2.36898,1.8517 16.16851,4.15185 35.42334,5.90446 l 17.66239,1.60767 12.96261,8.16436 c 7.12942,4.49041 14.7273,9.61532 16.88416,11.38869 2.15685,1.77338 4.43666,3.22433 5.06624,3.22433 2.65088,0 11.48162,7.70096 10.81695,9.43305 -0.47957,1.24976 1.22102,2.69677 5.49842,4.67852 8.40708,3.89507 15.66314,10.38967 19.03661,17.03889 2.50075,4.92909 2.64226,6.07589 1.31105,10.625 -1.92303,6.57156 -6.35082,14.18435 -12.99594,22.34426 -12.74409,15.64912 -28.08608,39.21013 -28.2475,43.38028 -0.0665,1.71875 -0.92487,4.53125 -1.90739,6.25 -0.98253,1.71875 -1.80635,6.28351 -1.8307,10.14392 -0.0326,5.16844 -0.7298,7.8904 -2.64439,10.32442 -1.43006,1.81801 -3.11756,2.98567 -3.75,2.5948 C 410.51746,275.17226 410,271.47746 410,267.35246 c 0,-4.125 -0.46777,-7.2109 -1.0395,-6.85756 -0.57173,0.35335 -2.39011,4.0428 -4.04086,8.19877 -2.08894,5.25918 -3.67295,7.55633 -5.2105,7.55633 -1.75698,0 -2.22046,-1.08736 -2.26448,-5.3125 l -0.0554,-5.3125 -2.75718,4.67526 c -3.24775,5.50714 -4.85483,5.82881 -7.66831,1.5349 -1.14053,-1.74065 -2.53488,-2.87979 -3.09856,-2.53141 -0.56368,0.34837 -1.3201,4.44442 -1.68094,9.10232 -0.36084,4.65792 -2.12494,13.45373 -3.92021,19.54627 -1.79523,6.09252 -3.26409,13.3182 -3.26409,16.05704 0,2.79055 -1.00799,6.43832 -2.2929,8.29766 -1.26109,1.82487 -3.27981,5.84921 -4.48605,8.94296 -1.20624,3.09375 -3.98586,7.875 -6.17693,10.625 -2.19107,2.75 -5.58648,7.53125 -7.54534,10.625 -6.29435,9.94101 -9.7573,12.56406 -30.00788,22.72982 -10.93625,5.48998 -22.89662,12.20727 -26.5786,14.9273 -3.68197,2.72004 -9.19985,6.01944 -12.26195,7.33202 -7.4519,3.19425 -40.07789,28.05105 -43.57644,33.19962 -5.71585,8.41164 -21.97061,19.25101 -39.88641,26.59798 -2.08126,0.85348 -3.4375,2.36469 -3.4375,3.83022 0,2.09958 -10.26667,12.60389 -12.36349,12.64967 -6.1764,0.13483 -28.69911,5.47972 -33.6388,7.98285 C 147.17181,484.575 144.77339,485 134.40394,485 l -11.92917,0 -5.61238,-5.28146 z M 394.8408,236.90292 C 397.67836,233.82454 400,230.72527 400,230.01566 400,227.6462 414.10142,207.5 415.75994,207.5 c 3.84995,0 13.0357,-22.32065 11.17801,-27.1617 -0.5076,-1.32277 -1.89804,-1.68554 -4.76485,-1.24317 -2.94875,0.45501 -6.50821,-0.54863 -13.10686,-3.69567 C 400.09229,171.11961 395,170.72232 395,174.30207 c 0,0.89849 0.84375,4.02506 1.875,6.94793 2.5191,7.13989 2.36063,16.8818 -0.52985,32.57139 -2.36418,12.83278 -2.87236,14.60533 -6.87811,23.99111 -2.65082,6.21102 -0.91969,5.91801 5.37376,-0.90958 z"
       id="path3420"
       inkscape:connector-curvature="0" />
    <path
       style="fill:#001791"
       d="m 117.1875,478.92176 c -15.4983,-23.91317 30.985,-23.12405 46.01234,-27.99143 19.15061,-7.77944 33.7564,-22.56869 45.51447,-39.312 17.62634,-11.70088 21.32775,-35.75751 40.14067,-46.86806 16.48299,-10.80318 -3.45987,-21.04171 -15.59588,-16.52648 -22.08939,1.22425 -39.54802,18.49622 -61.97865,20.17161 -22.05297,19.27097 -49.99172,23.8056 -78.081102,29.59532 -21.854996,7.81344 -36.840968,27.06636 -55.215089,40.68229 -27.24597,0.46252 -11.404962,-30.5736 -20.032668,-43.33359 -4.232843,-12.84714 12.917145,-29.33096 23.786397,-24.88768 8.142335,17.34556 23.592481,22.32166 36.693373,7.10318 20.533399,-11.03014 36.407759,-32.92098 60.893629,-34.974 20.45121,-11.45248 45.28748,-18.47663 59.24337,-38.42907 16.58714,-11.33426 31.2613,-24.27793 49.50769,-33.61676 10.65778,-13.75963 24.73601,-28.09829 20.58812,-47.2116 -7.90581,-16.26106 -6.49943,-51.72086 -31.7272,-46.79038 -17.63544,9.82408 -38.81715,6.66703 -58.83225,3.64052 -18.08278,-12.51266 -20.13253,-37.50177 -29.57835,-56.0826 -14.52379,-17.24249 -6.81315,-46.192889 -25.38207,-58.578331 -17.36298,-12.968746 -9.71044,-41.65279 10.94836,-45.795489 29.60666,-4.537237 37.31905,30.739717 25.22079,51.191107 3.29346,20.734125 5.47433,43.240363 20.49553,59.530423 7.1991,5.09144 12.39693,19.49149 22.88017,15.67001 18.26274,-5.87519 36.03442,-13.87558 54.37557,-19.83622 11.25472,-3.36287 25.83792,0.91522 35.96649,-2.47293 7.58099,-22.90332 -15.41337,-27.06856 -10.63098,-49.695721 -5.73213,-23.663575 35.19445,-38.022975 47.03029,-19.318602 6.10178,7.289275 8.88287,15.54663 7.42097,24.97836 0.008,9.835271 0.0157,19.670542 0.0235,29.505813 24.36869,6.77597 53.02995,0.62441 73.02218,19.26235 17.4144,11.09206 33.02774,23.76259 48.75009,37.31526 13.17055,20.7734 -13.71005,38.68961 -23.29363,55.1797 -15.85278,13.32624 -13.3418,43.14742 -25.11205,52.96703 3.03492,-16.75404 -4.00878,-13.22531 -8.19033,-0.43507 -7.55008,5.18069 -2.80371,-17.21677 -10.67708,0.49851 -13.74662,-16.27194 -8.5111,23.52045 -15.44898,32.02312 -2.92632,23.22615 -17.2994,44.06763 -33.92148,59.79792 -38.70117,19.96005 -78.58312,40.45124 -108.20737,73.18233 -13.41918,12.95898 -33.834,14.29183 -42.76831,30.78019 -19.18426,7.10298 -39.79912,14.21992 -60.55849,14.57042 -6.19826,1.08316 -9.28625,-0.88669 -13.28206,-5.48945 z M 393.90834,237.8125 c 9.67943,-17.73578 26.99775,-29.512 32.22347,-49.15369 5.25623,-15.34356 -18.68853,-9.43191 -27.98143,-17.1808 -2.57866,15.7673 2.88742,40.09587 -5.99121,58.34584 -2.45369,5.37653 -7.72261,18.89731 1.74917,7.98865 l 0,0 z"
       id="path3418"
       inkscape:connector-curvature="0" />
  </g>
</svg>
