<svg width="23" height="14" viewBox="0 0 23 14" fill="none" xmlns="http://www.w3.org/2000/svg">
<path fill-rule="evenodd" clip-rule="evenodd" d="M10.4155 3.12533C10.4155 4.65853 9.08031 5.89617 7.41379 5.89617C5.74727 5.89617 4.40201 4.65853 4.40201 3.12533C4.40201 1.59213 5.74727 0.354492 7.41379 0.354492C9.08031 0.354492 10.4155 1.59213 10.4155 3.12533ZM18.4469 3.12533C18.4469 4.65853 17.1116 5.89617 15.4451 5.89617C13.7786 5.89617 12.4333 4.65853 12.4333 3.12533C12.4333 1.59213 13.7786 0.354492 15.4451 0.354492C17.1116 0.354492 18.4469 1.59213 18.4469 3.12533ZM7.41372 7.7434C5.07457 7.7434 0.38623 8.82402 0.38623 10.976V12.3615C0.38623 12.8694 0.837998 13.2851 1.39016 13.2851H13.4373C13.9894 13.2851 14.4412 12.8694 14.4412 12.3615V10.976C14.4412 8.82402 9.75287 7.7434 7.41372 7.7434ZM14.4713 7.78958C14.8227 7.76187 15.154 7.7434 15.4451 7.7434C17.7843 7.7434 22.4726 8.82402 22.4726 10.976V12.3615C22.4726 12.8694 22.0209 13.2851 21.4687 13.2851H16.2684C16.3788 12.9988 16.4491 12.6847 16.4491 12.3615V10.976C16.4491 9.61833 15.656 8.59312 14.5115 7.82652C14.5084 7.82372 14.5054 7.82008 14.5021 7.8161C14.4944 7.80695 14.4853 7.79602 14.4713 7.78958Z" fill="#4D4D4D"/>
</svg>
